<svg xmlns="http://www.w3.org/2000/svg" version="1.1" xmlns:xlink="http://www.w3.org/1999/xlink" xmlns:svgjs="http://svgjs.dev/svgjs" width="1000" height="1000" viewBox="0 0 1000 1000"><g transform="matrix(1,0,0,1,-0.14221556886212738,-0.14221556886229791)"><svg viewBox="0 0 334 334" data-background-color="#ffffff" preserveAspectRatio="xMidYMid meet" height="1000" width="1000" xmlns="http://www.w3.org/2000/svg" xmlns:xlink="http://www.w3.org/1999/xlink"><g id="tight-bounds" transform="matrix(1,0,0,1,0.04749999999998522,0.04750000000001364)"><svg viewBox="0 0 333.90454557049503 333.90454557049503" height="333.90454557049503" width="333.90454557049503"><g><svg></svg></g><g><svg viewBox="0 0 333.90454557049503 333.90454557049503" height="333.90454557049503" width="333.90454557049503"><g><path d="M0 166.952c0-92.205 74.747-166.952 166.952-166.952 92.205 0 166.952 74.747 166.953 166.952 0 92.205-74.747 166.952-166.953 166.953-92.205 0-166.952-74.747-166.952-166.953zM166.952 329.586c89.82 0 162.634-72.814 162.634-162.634 0-89.82-72.814-162.634-162.634-162.633-89.82 0-162.634 72.814-162.633 162.633 0 89.82 72.814 162.634 162.633 162.634z" data-fill-palette-color="tertiary" fill="#000000" stroke="transparent"></path><ellipse rx="160.27418187383762" ry="160.27418187383762" cx="166.95227278524752" cy="166.95227278524752" fill="#000000" stroke="transparent" stroke-width="0" fill-opacity="1" data-fill-palette-color="tertiary"></ellipse></g><g transform="matrix(1,0,0,1,67.82744495133979,71.17305217166896)"><svg viewBox="0 0 198.24965566781546 191.55844122715712" height="191.55844122715712" width="198.24965566781546"><g><svg viewBox="0 0 198.24965566781546 191.55844122715712" height="191.55844122715712" width="198.24965566781546"><g><svg viewBox="0 0 213.1584412271571 205.96403357341953" height="191.55844122715712" width="198.24965566781546"><g transform="matrix(1,0,0,1,0,154.47400349063622)"><svg viewBox="0 0 213.1584412271571 51.4900300827833" height="51.4900300827833" width="213.1584412271571"><g id="textblocktransform"><svg viewBox="0 0 213.1584412271571 51.4900300827833" height="51.4900300827833" width="213.1584412271571" id="textblock"><g><svg viewBox="0 0 213.1584412271571 51.4900300827833" height="51.4900300827833" width="213.1584412271571"><g transform="matrix(1,0,0,1,0,0)"><svg width="213.1584412271571" viewBox="1.6100000143051147 -33.88999938964844 141.69000244140625 34.22999954223633" height="51.4900300827833" data-palette-color="#ffffff"><path d="M14.31-21.34L14.31-21.34Q17.19-21.34 18.12-19.92L18.12-19.92Q18.12-18.21 17.58-17.43 17.04-16.65 16.26-16.65L16.26-16.65Q15.38-16.65 14.65-17.48 13.92-18.31 12.65-18.31L12.65-18.31Q11.13-18.31 10.01-16.89 8.89-15.48 8.89-13.92L8.89-13.92 8.89-6.59Q8.89-3.76 9.28-2.25L9.28-2.25Q9.38-1.9 10.57-1.59 11.77-1.27 12.26-1.27L12.26-1.27Q12.4-1.27 12.45-0.68 12.5-0.1 12.4 0.15L12.4 0.15Q7.52-0.1 7.13-0.1L7.13-0.1Q6.84-0.1 1.81 0.15L1.81 0.15Q1.61-0.05 1.61-0.66 1.61-1.27 1.81-1.27L1.81-1.27Q2.39-1.27 3.54-1.59 4.69-1.9 4.79-2.25L4.79-2.25Q5.13-3.66 5.13-5.66L5.13-5.66 5.13-14.89Q5.13-16.8 4.44-17.53L4.44-17.53Q3.96-18.12 3.25-18.33 2.54-18.55 2.08-18.55 1.61-18.55 1.61-18.65L1.61-18.65Q1.61-19.82 1.9-19.87L1.9-19.87Q7.08-20.65 8.64-21.14L8.64-21.14Q8.69-21.14 8.79-21.17 8.89-21.19 8.89-21.19L8.89-21.19Q9.08-21.19 9.13-20.78 9.18-20.36 9.13-20.17L9.13-20.17 8.84-17.72Q9.72-19.04 11.25-20.19 12.79-21.34 14.31-21.34ZM29.54-19.48L29.54-19.48Q27-19.48 25.66-17.31 24.31-15.14 24.31-13.72L24.31-13.72Q24.31-13.38 24.61-13.38L24.61-13.38 34.13-13.38Q34.37-13.38 34.37-13.87L34.37-13.87Q34.37-15.43 33.05-17.46 31.74-19.48 29.54-19.48ZM30.03-21.29L30.03-21.29Q32.27-21.29 33.98-20.43 35.69-19.58 36.59-18.24 37.5-16.89 37.91-15.5 38.33-14.11 38.33-12.74L38.33-12.74Q38.33-11.77 38.03-11.55 37.74-11.33 36.91-11.33L36.91-11.33 24.61-11.33Q24.22-11.33 24.22-11.08L24.22-11.08Q24.22-8.01 26.07-5.42 27.93-2.83 31.44-2.83L31.44-2.83Q32.47-2.83 33.4-3.03 34.32-3.22 34.98-3.49 35.64-3.76 36.11-4.03 36.57-4.3 36.91-4.54L36.91-4.54 37.25-4.79Q37.55-4.79 37.55-4.15L37.55-4.15Q37.55-3.76 37.25-3.27L37.25-3.27Q36.28-1.9 34.37-0.81 32.47 0.29 30.22 0.29L30.22 0.29Q26.17 0.29 23.26-2.76 20.36-5.81 20.36-10.21L20.36-10.21Q20.36-15.33 23.12-18.31 25.88-21.29 30.03-21.29ZM46.38-3.15Q47.21-2.44 48.53-2.44 49.85-2.44 51.07-3.25 52.29-4.05 52.29-4.88L52.29-4.88 52.29-9.91Q51.9-9.72 50.39-9.23 48.87-8.74 48.02-8.37 47.16-8.01 46.36-7.15 45.55-6.3 45.55-5.18L45.55-5.18Q45.55-3.86 46.38-3.15ZM50.97-21.29L50.97-21.29Q53.66-21.29 54.83-20 56-18.7 56-15.82L56-15.82 56-4.54Q56-3.52 56.54-2.83 57.08-2.15 58-2.15L58-2.15Q58.69-2.15 59.71-2.83L59.71-2.83Q59.91-2.83 59.91-2.44L59.91-2.44Q59.91-1.81 59.66-1.42L59.66-1.42Q57.66 0.29 56.25 0.29L56.25 0.29Q55.12 0.29 54.1-0.63 53.07-1.56 52.68-2.59L52.68-2.59Q52.63-2.59 52.31-2.27 52-1.95 51.46-1.54 50.92-1.12 50.21-0.68 49.51-0.24 48.55 0.05 47.6 0.34 46.63 0.34L46.63 0.34Q44.38 0.34 42.91-0.85 41.45-2.05 41.45-4.44L41.45-4.44Q41.45-5.52 41.99-6.47 42.52-7.42 43.26-8.03 43.99-8.64 45.26-9.28 46.53-9.91 47.43-10.23 48.33-10.55 49.8-11.04 51.26-11.52 51.85-11.77L51.85-11.77Q52.29-11.91 52.29-12.5L52.29-12.5 52.29-16.16Q52.29-17.72 51.31-18.58 50.34-19.43 48.97-19.43L48.97-19.43Q47.5-19.43 46.53-18.43 45.55-17.43 45.55-15.82L45.55-15.82Q45.55-14.11 43.55-14.11L43.55-14.11Q42.18-14.11 41.65-15.04L41.65-15.04Q41.65-17.14 44.72-19.21 47.8-21.29 50.97-21.29ZM72.31-19.43L72.31-19.43Q69.47-19.43 67.86-16.89 66.25-14.36 66.25-10.99L66.25-10.99Q66.25-7.42 68.16-4.81 70.06-2.2 73.43-2.2L73.43-2.2Q75.09-2.2 76.02-2.95 76.95-3.71 76.95-4.98L76.95-4.98 76.95-16.6Q76.95-17.63 75.85-18.53 74.75-19.43 72.31-19.43ZM72.94-21.48L72.94-21.48Q75.04-21.48 76.6-20.65L76.6-20.65Q76.95-20.65 76.95-21.53L76.95-21.53 76.95-26.81Q76.95-28.47 76.65-29.93L76.65-29.93Q76.41-30.71 74.16-30.71L74.16-30.71 73.72-30.71Q73.43-30.71 73.43-31.25L73.43-31.25Q73.43-32.03 73.72-32.03L73.72-32.03Q75.19-32.18 76.43-32.42 77.68-32.67 78.39-32.91 79.09-33.15 79.58-33.37 80.07-33.59 80.31-33.74L80.31-33.74 80.51-33.89 80.61-33.89Q80.8-33.89 81-33.62 81.19-33.35 81.24-33.11L81.24-33.11Q80.71-31.54 80.71-28.86L80.71-28.86 80.71-6.88Q80.71-4.54 81-3.17L81-3.17Q81.1-2.83 81.54-2.64 81.97-2.44 82.44-2.39 82.9-2.34 83.34-2.34L83.34-2.34 83.78-2.29Q83.93-2.25 83.93-1.71L83.93-1.71Q83.93-0.98 83.64-0.98L83.64-0.98Q82.9-0.93 82-0.78 81.1-0.63 80.29-0.46 79.48-0.29 78.8-0.12 78.12 0.05 77.68 0.2L77.68 0.2 77.24 0.29Q76.95 0.29 76.95-0.54L76.95-0.54 76.95-1.12Q76.95-1.42 76.75-1.32L76.75-1.32Q74.02 0.2 71.57 0.2L71.57 0.2Q67.52 0.2 64.79-2.69 62.05-5.57 62.05-9.57L62.05-9.57Q62.05-14.31 65.4-17.9 68.74-21.48 72.94-21.48ZM100.09-21.39L100.09-21.39Q102.04-21.39 103.33-20.34 104.63-19.29 105.12-17.92L105.12-17.92Q108.78-21.39 112.69-21.39L112.69-21.39Q118.84-21.39 118.84-12.01L118.84-12.01 118.84-6.59Q118.84-3.76 119.23-2.25L119.23-2.25Q119.33-1.9 120.5-1.59 121.67-1.27 122.16-1.27L122.16-1.27Q122.3-1.27 122.35-0.68 122.4-0.1 122.3 0.15L122.3 0.15Q117.42-0.1 117.08-0.1L117.08-0.1Q116.79-0.1 111.76 0.15L111.76 0.15Q111.56-0.05 111.56-0.66 111.56-1.27 111.76-1.27L111.76-1.27Q112.34-1.27 113.49-1.59 114.64-1.9 114.74-2.25L114.74-2.25Q115.08-3.66 115.08-5.37L115.08-5.37 115.08-10.89Q115.08-18.41 110.15-18.41L110.15-18.41Q108.34-18.41 107.02-17.36 105.7-16.31 105.7-15.63L105.7-15.63 105.75-15.43Q105.75-15.23 105.75-15.19L105.75-15.19Q105.95-13.96 105.95-11.67L105.95-11.67 105.95-6.15Q105.95-3.76 106.34-2.25L106.34-2.25Q106.44-1.9 107.61-1.59 108.78-1.27 109.27-1.27L109.27-1.27Q109.41-1.27 109.46-0.68 109.51-0.1 109.41 0.15L109.41 0.15Q104.53-0.1 104.19-0.1L104.19-0.1Q103.9-0.1 98.87 0.15L98.87 0.15Q98.67-0.05 98.67-0.66 98.67-1.27 98.87-1.27L98.87-1.27Q99.45-1.27 100.6-1.59 101.75-1.9 101.85-2.25L101.85-2.25Q102.19-3.66 102.19-5.66L102.19-5.66 102.19-10.64Q102.19-18.41 97.5-18.41L97.5-18.41Q96.03-18.41 94.55-17.31 93.06-16.21 93.06-15.19L93.06-15.19 93.06-6.59Q93.06-3.76 93.45-2.25L93.45-2.25Q93.54-1.9 94.72-1.59 95.89-1.27 96.38-1.27L96.38-1.27Q96.52-1.27 96.57-0.68 96.62-0.1 96.52 0.15L96.52 0.15Q91.64-0.1 91.3-0.1L91.3-0.1Q91.01-0.1 85.98 0.15L85.98 0.15Q85.78-0.05 85.78-0.66 85.78-1.27 85.98-1.27L85.98-1.27Q86.56-1.27 87.71-1.59 88.86-1.9 88.95-2.25L88.95-2.25Q89.3-3.66 89.3-5.66L89.3-5.66 89.3-14.89Q89.3-16.8 88.61-17.53L88.61-17.53Q88.12-18.12 87.42-18.33 86.71-18.55 86.24-18.55 85.78-18.55 85.78-18.65L85.78-18.65Q85.78-19.82 86.07-19.87L86.07-19.87Q91.25-20.65 92.81-21.14L92.81-21.14Q92.86-21.14 92.96-21.17 93.06-21.19 93.06-21.19L93.06-21.19Q93.25-21.19 93.3-20.78 93.35-20.36 93.3-20.17L93.3-20.17Q93.11-18.8 93.11-18.21L93.11-18.21Q93.11-18.02 93.2-18.02L93.2-18.02Q93.25-18.02 93.35-18.12L93.35-18.12Q94.47-19.29 96.4-20.34 98.33-21.39 100.09-21.39ZM134.51-19.48L134.51-19.48Q131.97-19.48 130.63-17.31 129.28-15.14 129.28-13.72L129.28-13.72Q129.28-13.38 129.58-13.38L129.58-13.38 139.1-13.38Q139.34-13.38 139.34-13.87L139.34-13.87Q139.34-15.43 138.02-17.46 136.71-19.48 134.51-19.48ZM135-21.29L135-21.29Q137.24-21.29 138.95-20.43 140.66-19.58 141.56-18.24 142.47-16.89 142.88-15.5 143.3-14.11 143.3-12.74L143.3-12.74Q143.3-11.77 143.01-11.55 142.71-11.33 141.88-11.33L141.88-11.33 129.58-11.33Q129.19-11.33 129.19-11.08L129.19-11.08Q129.19-8.01 131.04-5.42 132.9-2.83 136.41-2.83L136.41-2.83Q137.44-2.83 138.37-3.03 139.29-3.22 139.95-3.49 140.61-3.76 141.08-4.03 141.54-4.3 141.88-4.54L141.88-4.54 142.22-4.79Q142.52-4.79 142.52-4.15L142.52-4.15Q142.52-3.76 142.22-3.27L142.22-3.27Q141.25-1.9 139.34-0.81 137.44 0.29 135.19 0.29L135.19 0.29Q131.14 0.29 128.23-2.76 125.33-5.81 125.33-10.21L125.33-10.21Q125.33-15.33 128.09-18.31 130.85-21.29 135-21.29Z" opacity="1" transform="matrix(1,0,0,1,0,0)" fill="#ffffff" class="wordmark-text-0" data-fill-palette-color="quaternary" id="text-0"></path></svg></g></svg></g></svg></g></svg></g><g transform="matrix(1,0,0,1,51.51745544593993,0)"><svg viewBox="0 0 110.12353033527725 142.31844314881306" height="142.31844314881306" width="110.12353033527725"><g><svg xmlns="http://www.w3.org/2000/svg" xmlns:xlink="http://www.w3.org/1999/xlink" version="1.1" x="0" y="0" viewBox="12.982999801635742 1 75.68599700927734 97.81300354003906" enable-background="new 0 0 100 100" xml:space="preserve" height="142.31844314881306" width="110.12353033527725" class="icon-icon-0" data-fill-palette-color="quaternary" id="icon-0"><g fill="#ffffff" data-fill-palette-color="quaternary"><polygon fill-rule="evenodd" clip-rule="evenodd" points="12.983,10.59 30.001,98.813 24.129,39.764 53.15,37.872 53.096,27.989    64.549,1 53.622,18.977  " fill="#ffffff" data-fill-palette-color="quaternary"></polygon><polygon fill-rule="evenodd" clip-rule="evenodd" points="59.389,54.548 64.549,1.007 55.809,40.723 36.197,41.768 37.767,62.23    30.001,98.813 42.058,58.914  " fill="#ffffff" data-fill-palette-color="quaternary"></polygon><polygon fill-rule="evenodd" clip-rule="evenodd" points="62.8,67.182 63.349,56.729 47.37,60.484 47.338,72.281 30.001,98.813    51.681,71.197  " fill="#ffffff" data-fill-palette-color="quaternary"></polygon><polygon fill-rule="evenodd" clip-rule="evenodd" points="65.711,62.394 80.552,57.663 82.061,45.131 66.162,47.226  " fill="#ffffff" data-fill-palette-color="quaternary"></polygon><polygon fill-rule="evenodd" clip-rule="evenodd" points="72.07,44.502 83.058,43.085 84.639,32.807 76.56,32.434 64.549,1    72.979,31.967  " fill="#ffffff" data-fill-palette-color="quaternary"></polygon><polygon fill-rule="evenodd" clip-rule="evenodd" points="87.413,31.294 88.669,21.788 79.125,19.094 64.549,1 79.032,23.437    78.61,30.437  " fill="#ffffff" data-fill-palette-color="quaternary"></polygon></g></svg></g></svg></g><g></g></svg></g></svg></g></svg></g></svg></g><defs></defs></svg><rect width="333.90454557049503" height="333.90454557049503" fill="none" stroke="none" visibility="hidden"></rect></g></svg></g></svg>