<svg xmlns="http://www.w3.org/2000/svg" version="1.1" xmlns:xlink="http://www.w3.org/1999/xlink" xmlns:svgjs="http://svgjs.dev/svgjs" width="1000" height="1000" viewBox="0 0 1000 1000"><rect width="1000" height="1000" fill="#000000"></rect><g transform="matrix(0.7,0,0,0.7,149.5757576684797,408.23707679207166)"><svg viewBox="0 0 396 104" data-background-color="#ffffff" preserveAspectRatio="xMidYMid meet" height="262" width="1000" xmlns="http://www.w3.org/2000/svg" xmlns:xlink="http://www.w3.org/1999/xlink"><g id="tight-bounds" transform="matrix(1,0,0,1,0.24000005245426337,0.03568164462674872)"><svg viewBox="0 0 395.52 103.92863671074652" height="103.92863671074652" width="395.52"><g><svg viewBox="0 0 558.1628616245014 146.6654158353648" height="103.92863671074652" width="395.52"><g transform="matrix(1,0,0,1,0,20.26996702210903)"><svg viewBox="0 0 395.52 106.12548179114674" height="106.12548179114674" width="395.52"><g id="textblocktransform"><svg viewBox="0 0 395.52 106.12548179114674" height="106.12548179114674" width="395.52" id="textblock"><g><svg viewBox="0 0 395.52 67.67924646781789" height="67.67924646781789" width="395.52"><g transform="matrix(1,0,0,1,0,0)"><svg width="395.52" viewBox="1.9000000953674316 -43.20000076293945 254.77999877929688 43.60000228881836" height="67.67924646781789" data-palette-color="#50a060"><path d="M1.9 0L1.9-42.95 15.1-42.95Q18.25-42.95 19.98-41.53 21.7-40.1 22.3-37.52 22.9-34.95 22.9-30.95L22.9-30.95Q22.9-27.3 21.95-25.25 21-23.2 18.65-22.4L18.65-22.4Q20.6-22 21.48-20.45 22.35-18.9 22.35-16.25L22.35-16.25 22.25 0 13.85 0 13.85-16.8Q13.85-18.6 13.15-19.1 12.45-19.6 10.6-19.6L10.6-19.6 10.6 0 1.9 0ZM10.65-27.05L12.7-27.05Q14.5-27.05 14.5-30.95L14.5-30.95Q14.5-32.65 14.35-33.5 14.2-34.35 13.8-34.68 13.4-35 12.65-35L12.65-35 10.65-35 10.65-27.05ZM35.85 0.4Q30.2 0.4 27.75-2.7 25.3-5.8 25.3-11.95L25.3-11.95 25.3-26.65Q25.3-31.7 28.2-34.35 31.1-37 36.3-37L36.3-37Q46.85-37 46.85-26.65L46.85-26.65 46.85-24Q46.85-20 46.75-17.5L46.75-17.5 34.05-17.5 34.05-10.4Q34.05-8.5 34.45-7.43 34.85-6.35 36.15-6.35L36.15-6.35Q37.15-6.35 37.57-6.95 38-7.55 38.07-8.33 38.15-9.1 38.15-10.6L38.15-10.6 38.15-14.15 46.85-14.15 46.85-12.05Q46.85-5.65 44.37-2.63 41.9 0.4 35.85 0.4L35.85 0.4ZM34-21.85L38.15-21.85 38.15-26.55Q38.15-30.5 36.2-30.5L36.2-30.5Q34-30.5 34-26.55L34-26.55 34-21.85ZM56.65 0.4Q52.4 0.4 50.82-2.43 49.25-5.25 49.25-10.5L49.25-10.5Q49.25-14.8 50.37-17.1 51.5-19.4 53.5-20.48 55.5-21.55 59.6-22.85L59.6-22.85 62-23.65 62-23.75 62-27.4Q62-28.85 61.42-29.63 60.85-30.4 60.05-30.4L60.05-30.4Q59.35-30.4 58.82-29.75 58.3-29.1 58.3-28L58.3-28 58.3-25.8 49.8-25.8 49.8-27Q49.8-32.4 52.32-34.7 54.85-37 60.55-37L60.55-37Q65.09-37 67.95-34.63 70.8-32.25 70.8-27.9L70.8-27.9 70.8 0 62.1 0 62.1-4.35Q61.45-2.1 60.02-0.85 58.6 0.4 56.65 0.4L56.65 0.4ZM60.1-6.4Q61.1-6.4 61.52-7.23 61.95-8.05 61.95-9.25L61.95-9.25 61.95-19.45Q60-18.7 59.07-17.55 58.15-16.4 58.15-14.35L58.15-14.35 58.15-9.65Q58.15-6.4 60.1-6.4L60.1-6.4ZM81.34 0.4Q78.14 0.4 76.52-1.13 74.89-2.65 74.37-5.18 73.84-7.7 73.84-11.65L73.84-11.65 73.94-28.15Q73.94-32.05 75.92-34.52 77.89-37 81.49-37L81.49-37Q85.04-37 86.79-34.65L86.79-34.65 86.79-43.2 95.54-43.2 95.54 0 86.79 0 86.79-3.9Q86.04-1.75 84.77-0.68 83.49 0.4 81.34 0.4L81.34 0.4ZM84.69-6.45Q85.99-6.45 86.39-7.73 86.79-9 86.79-11.15L86.79-11.15 86.79-12.7 86.79-26.45Q86.79-28.05 86.34-29.15 85.89-30.25 84.74-30.25L84.74-30.25Q83.44-30.25 83.02-29.23 82.59-28.2 82.59-26.45L82.59-26.45 82.59-11.05Q82.59-6.45 84.69-6.45L84.69-6.45ZM99.04 0L99.04-36.6 107.59-36.6 107.59-32.35Q108.19-34.7 109.64-35.85 111.09-37 113.74-37L113.74-37Q115.89-37 117.47-36.02 119.04-35.05 119.69-33.35L119.69-33.35Q120.79-35.25 122.14-36.13 123.49-37 125.89-37L125.89-37Q130.19-37 131.87-34.38 133.54-31.75 133.54-26.75L133.54-26.75 133.44 0 124.64 0 124.64-26.9Q124.64-30.45 122.84-30.45L122.84-30.45Q121.59-30.45 121.04-29.23 120.49-28 120.49-26.3L120.49-26.3 120.49 0 111.74 0 111.74-26.9Q111.74-28.45 111.42-29.4 111.09-30.35 110.04-30.35L110.04-30.35Q108.69-30.35 108.14-29.03 107.59-27.7 107.59-25.85L107.59-25.85 107.59 0 99.04 0ZM147.19 0.4Q141.54 0.4 139.09-2.7 136.64-5.8 136.64-11.95L136.64-11.95 136.64-26.65Q136.64-31.7 139.54-34.35 142.44-37 147.64-37L147.64-37Q158.19-37 158.19-26.65L158.19-26.65 158.19-24Q158.19-20 158.09-17.5L158.09-17.5 145.39-17.5 145.39-10.4Q145.39-8.5 145.79-7.43 146.19-6.35 147.49-6.35L147.49-6.35Q148.49-6.35 148.91-6.95 149.34-7.55 149.41-8.33 149.49-9.1 149.49-10.6L149.49-10.6 149.49-14.15 158.19-14.15 158.19-12.05Q158.19-5.65 155.71-2.63 153.24 0.4 147.19 0.4L147.19 0.4ZM145.34-21.85L149.49-21.85 149.49-26.55Q149.49-30.5 147.54-30.5L147.54-30.5Q145.34-30.5 145.34-26.55L145.34-26.55 145.34-21.85ZM169.69 0L160.94 0 160.94-7.3 169.69-7.3 169.69 0ZM183.78 0.4Q177.78 0.4 175.13-2.65 172.48-5.7 172.48-12L172.48-12 172.48-23.3Q172.48-28.05 173.51-31.03 174.53-34 176.96-35.5 179.38-37 183.68-37L183.68-37Q188.38-37 191.33-34.55 194.28-32.1 194.28-27.7L194.28-27.7 194.28-22.1 185.38-22.1 185.38-27.25Q185.38-28.7 184.98-29.48 184.58-30.25 183.43-30.25L183.43-30.25Q181.28-30.25 181.28-27.2L181.28-27.2 181.28-9.45Q181.28-8.2 181.81-7.33 182.33-6.45 183.38-6.45L183.38-6.45Q184.43-6.45 184.96-7.3 185.48-8.15 185.43-9.5L185.43-9.5 185.38-15.65 194.28-15.65 194.28-9.25Q194.28-4.75 191.36-2.18 188.43 0.4 183.78 0.4L183.78 0.4ZM207.98 0.4Q197.03 0.4 197.03-10.95L197.03-10.95 197.03-25.65Q197.03-30.85 199.96-33.93 202.88-37 207.98-37L207.98-37Q213.08-37 216.01-33.93 218.93-30.85 218.93-25.65L218.93-25.65 218.93-10.95Q218.93 0.4 207.98 0.4L207.98 0.4ZM207.98-6.35Q209.03-6.35 209.53-7.1 210.03-7.85 210.03-9.15L210.03-9.15 210.03-27.05Q210.03-30.25 207.98-30.25L207.98-30.25Q205.93-30.25 205.93-27.05L205.93-27.05 205.93-9.15Q205.93-7.85 206.43-7.1 206.93-6.35 207.98-6.35L207.98-6.35ZM222.18 0L222.18-36.6 230.73-36.6 230.73-32.35Q231.33-34.7 232.78-35.85 234.23-37 236.88-37L236.88-37Q239.03-37 240.6-36.02 242.18-35.05 242.83-33.35L242.83-33.35Q243.93-35.25 245.28-36.13 246.63-37 249.03-37L249.03-37Q253.33-37 255-34.38 256.68-31.75 256.68-26.75L256.68-26.75 256.58 0 247.78 0 247.78-26.9Q247.78-30.45 245.98-30.45L245.98-30.45Q244.73-30.45 244.18-29.23 243.63-28 243.63-26.3L243.63-26.3 243.63 0 234.88 0 234.88-26.9Q234.88-28.45 234.55-29.4 234.23-30.35 233.18-30.35L233.18-30.35Q231.83-30.35 231.28-29.03 230.73-27.7 230.73-25.85L230.73-25.85 230.73 0 222.18 0Z" opacity="1" transform="matrix(1,0,0,1,0,0)" fill="#ffffff" class="wordmark-text-0" data-fill-palette-color="primary" id="text-0"></path></svg></g></svg></g><g transform="matrix(1,0,0,1,163.310208,83.65669225695447)"><svg viewBox="0 0 232.209792 22.468789534192272" height="22.468789534192272" width="232.209792"><g transform="matrix(1,0,0,1,0,0)"><svg width="232.209792" viewBox="4.199999809265137 -38.15999984741211 467.989990234375 45.290000915527344" height="22.468789534192272" data-palette-color="#010101"><path d="M20.36 0.2L14.7-12.62Q13.96-12.57 13.13-12.57 12.3-12.57 10.67-12.7L10.67-12.7 10.67 0 4.2 0 4.2-32.64Q7.62-33.08 12.6-33.08L12.6-33.08Q19.38-33.08 22.72-30.58 26.05-28.08 26.05-22.85L26.05-22.85Q26.05-18.8 23-15.92L23-15.92Q22-14.99 20.7-14.31L20.7-14.31 25.68-3.81Q27.15-0.56 27.93 0.05L27.93 0.05 27.81 0.17Q25.44-0.22 20.36 0.2L20.36 0.2ZM13.06-27.32L13.06-27.32Q11.82-27.32 10.67-27.2L10.67-27.2 10.67-17.87Q11.87-17.7 13.48-17.7 15.09-17.7 16.19-17.98 17.29-18.26 18.09-18.85L18.09-18.85Q19.82-20.14 19.82-22.73 19.82-25.32 18.02-26.37L18.02-26.37Q16.33-27.32 13.06-27.32ZM31.49-12.55L31.49-12.55Q31.49-15.41 32.47-17.85 33.44-20.29 35.23-22.12L35.23-22.12Q39.04-26 45.19-26L45.19-26Q50.39-26 53.54-22.56L53.54-22.56Q56.64-19.24 56.64-14.21L56.64-14.21Q56.64-12.28 56.35-11.57L56.35-11.57Q53.9-10.89 46.41-10.89L46.41-10.89 37.81-10.89Q38.45-8.28 40.77-6.82 43.09-5.37 46.8-5.37L46.8-5.37Q50.68-5.37 53.46-6.76L53.46-6.76Q54.2-7.13 54.56-7.45L54.56-7.45Q54.51-6.42 54.44-5.35L54.44-5.35 54.17-1.54Q52.32-0.27 48.17 0.22L48.17 0.22Q46.95 0.37 45.82 0.37L45.82 0.37Q39.62 0.37 35.57-3.25L35.57-3.25Q31.49-6.88 31.49-12.55ZM50.14-15.63L50.14-15.63Q49.14-20.87 44.43-20.87L44.43-20.87Q40.72-20.87 38.79-17.68L38.79-17.68Q38.21-16.7 37.89-15.53L37.89-15.53Q38.47-15.5 39.33-15.48L39.33-15.48 41.14-15.48Q42.04-15.45 42.87-15.45L42.87-15.45 44.26-15.45Q45.51-15.45 46.7-15.48L46.7-15.48 48.7-15.55Q49.51-15.58 50.14-15.63ZM78.78-1.51L78.78-1.51Q75.31 0.37 72.5 0.37 69.7 0.37 67.7-0.16 65.69-0.68 64.3-1.71L64.3-1.71Q61.47-3.78 61.47-7.71L61.47-7.71Q61.47-11.23 64.94-13.57L64.94-13.57Q68.7-16.11 75.14-16.11L75.14-16.11 76.12-16.09Q76.41-16.06 76.78-16.05 77.14-16.04 77.44-15.99L77.44-15.99Q77.24-19.9 74.07-20.56L74.07-20.56Q73.02-20.78 71.83-20.78 70.65-20.78 69.51-20.57 68.38-20.36 67.3-20.02L67.3-20.02Q64.94-19.26 63.91-18.29L63.91-18.29 63.84-18.33 63.11-23.73Q67.43-26 72.55-26L72.55-26Q80.51-26 82.73-20.26L82.73-20.26Q83.44-18.43 83.44-16.14L83.44-16.14 83.44-7.3Q83.44-4.47 85.44-3.44L85.44-3.44 81.03 0.61Q79.63-0.12 78.78-1.51ZM77.46-6.49L77.46-11.6Q76.8-11.72 76.09-11.72L76.09-11.72 75.12-11.72Q69.72-11.72 68.26-9.33L68.26-9.33Q67.82-8.62 67.82-7.84 67.82-7.06 68.1-6.46 68.38-5.86 69.04-5.47L69.04-5.47Q70.31-4.74 72.81-4.74 75.31-4.74 77.49-5.93L77.49-5.93Q77.46-6.2 77.46-6.49L77.46-6.49ZM108.56-1.37L108.56-1.37Q105.46 0.37 102.36 0.37 99.26 0.37 96.94-0.61 94.62-1.59 92.99-3.3L92.99-3.3Q89.62-6.81 89.62-12.43L89.62-12.43Q89.62-18.24 93.52-22.09L93.52-22.09Q97.45-26 103.58-26L103.58-26Q105.46-26 107.27-25.51L107.27-25.51 107.27-36.38 113.25-36.38 113.25-10.28Q113.25-7.03 113.55-6.03 113.86-5.03 114.24-4.57 114.62-4.1 115.2-3.69L115.2-3.69 110.61 0.37Q109.34-0.32 108.56-1.37ZM103.51-5.25L103.51-5.25Q105.56-5.25 107.27-6.03L107.27-6.03 107.27-19.56Q105.56-20.26 103.56-20.26 101.56-20.26 100.13-19.73 98.7-19.19 97.67-18.24L97.67-18.24Q95.52-16.24 95.52-13.04L95.52-13.04Q95.52-9.55 97.48-7.47L97.48-7.47Q99.58-5.25 103.51-5.25ZM136.79 2.84Q137.12 0.17 137.12-1.62 137.12-3.42 136.85-5.37L136.85-5.37 142.93-6.35 143.13-5.1Q143.32-3.74 143.32-2.28 143.32-0.83 143.18 0.4 143.03 1.64 142.79 2.69L142.79 2.69Q142.22 4.98 141.52 5.42L141.52 5.42Q140.32 6.18 135.78 7.13L135.78 7.13 135.63 6.98Q136.46 5.52 136.79 2.84ZM178.16 0.02L178.11 0.1Q177.38 0 175.62 0L175.62 0 172.79 0Q171.96 0 171.42 0.05L171.42 0.05 171.39 0Q171.49-0.17 171.49-0.39 171.49-0.61 171.45-0.85 171.42-1.1 171.26-1.73 171.1-2.37 170.78-3.56L170.78-3.56 162.48-32.57Q164.05-32.47 166.27-32.47 168.49-32.47 169.15-32.67L169.15-32.67 174.91-10.57 180.52-32.57Q180.89-32.54 181.18-32.52L181.18-32.52 181.72-32.52Q182.53-32.47 183.75-32.47 184.97-32.47 186.26-32.67L186.26-32.67 191.97-10.57 196.88-32.57Q198.35-32.47 200.71-32.47 203.08-32.47 203.6-32.67L203.6-32.67 196.56-6.91Q195.22-2.47 195.15-1.64 195.08-0.81 195.08-0.49 195.08-0.17 195.17 0.02L195.17 0.02 195.12 0.1Q194.34 0 192.66 0L192.66 0Q191.19 0 190 0 188.8 0 188.26 0.05L188.26 0.05 188.24 0Q188.34-0.17 188.34-0.39 188.34-0.61 188.31-0.83 188.29-1.05 188.18-1.67 188.07-2.29 187.82-3.52L187.82-3.52 187.17-6.84 183.16-22.05 179.35-6.91Q178.18-2.25 178.13-1.54L178.13-1.54Q178.03-0.2 178.16 0.02L178.16 0.02ZM213.38-17.77L213.38-2.73Q213.38-0.63 213.48 0L213.48 0 207.4 0 207.4-25.51 213.38-25.51 213.38-23.63Q215.46-26 217.74-26 220.02-26 221.34-25.44L221.34-25.44 220.9-18.87 220.81-18.8Q219.95-20.31 217.27-20.31L217.27-20.31Q216.24-20.31 215.18-19.62 214.12-18.92 213.38-17.77L213.38-17.77ZM229.03-28.83L223.54-32.79Q225.49-35.84 227.61-38.16L227.61-38.16 232.86-34.03Q231.81-32.74 230.91-31.49L230.91-31.49Q230.91-31.49 229.03-28.83L229.03-28.83ZM229.96-25.51L229.96-2.73Q229.96-0.63 230.06 0L230.06 0 223.85 0 223.85-25.51 229.96-25.51ZM248.17-5.37L248.17-5.37Q251.32-5.37 252.49-7.01L252.49-7.01 252.68-7.01 252.76-1.34Q251.56-0.15 248.31 0.24L248.31 0.24Q247.44 0.37 246.13 0.37 244.82 0.37 243.3-0.12 241.77-0.61 240.7-1.71L240.7-1.71Q238.48-3.98 238.48-8.81L238.48-8.81 238.48-19.9 234.79-19.9Q234.77-20.61 234.77-21.34L234.77-21.34 234.77-25.1Q234.77-25.51 234.79-25.51L234.79-25.51 238.48-25.51 238.48-32.47 244.46-32.47 244.46-25.51 251.17-25.51 251.17-19.9 244.46-19.9 244.46-9.94Q244.46-6.1 246.58-5.57L246.58-5.57Q247.27-5.37 248.17-5.37ZM256.49-12.55L256.49-12.55Q256.49-15.41 257.47-17.85 258.44-20.29 260.23-22.12L260.23-22.12Q264.04-26 270.19-26L270.19-26Q275.39-26 278.54-22.56L278.54-22.56Q281.64-19.24 281.64-14.21L281.64-14.21Q281.64-12.28 281.34-11.57L281.34-11.57Q278.9-10.89 271.41-10.89L271.41-10.89 262.81-10.89Q263.45-8.28 265.77-6.82 268.09-5.37 271.8-5.37L271.8-5.37Q275.68-5.37 278.46-6.76L278.46-6.76Q279.2-7.13 279.56-7.45L279.56-7.45Q279.51-6.42 279.44-5.35L279.44-5.35 279.17-1.54Q277.32-0.27 273.17 0.22L273.17 0.22Q271.95 0.37 270.82 0.37L270.82 0.37Q264.62 0.37 260.57-3.25L260.57-3.25Q256.49-6.88 256.49-12.55ZM275.14-15.63L275.14-15.63Q274.14-20.87 269.43-20.87L269.43-20.87Q265.72-20.87 263.79-17.68L263.79-17.68Q263.2-16.7 262.89-15.53L262.89-15.53Q263.47-15.5 264.33-15.48L264.33-15.48 266.13-15.48Q267.04-15.45 267.87-15.45L267.87-15.45 269.26-15.45Q270.5-15.45 271.7-15.48L271.7-15.48 273.7-15.55Q274.51-15.58 275.14-15.63ZM324.04-2.88L324.04-2.88Q320.01 0.61 314.3 0.61L314.3 0.61Q308.68 0.61 305.02-2.73L305.02-2.73Q301.43-5.98 301.43-10.79L301.43-10.79Q301.43-15.14 305.19-18.02L305.19-18.02Q306.32-18.9 307.61-19.48L307.61-19.48Q306.22-21.83 306.22-24.07 306.22-26.32 306.95-27.91 307.68-29.49 308.98-30.64L308.98-30.64Q311.74-33.08 316.06-33.08L316.06-33.08Q319.13-33.08 321.7-31.62L321.7-31.62Q321.57-29.54 321.57-28.42L321.57-28.42Q321.57-26.88 321.61-26.49 321.65-26.1 321.63-25.94 321.62-25.78 321.6-25.68L321.6-25.68Q321.5-25.54 321.55-25.34L321.55-25.34 321.43-25.17Q320.45-26.64 317.64-27.27L317.64-27.27Q316.79-27.47 315.45-27.47 314.1-27.47 313.24-26.66 312.37-25.85 312.37-24.63L312.37-24.63Q312.37-22.53 315.35-19.29L315.35-19.29Q316.28-18.26 317.59-16.97L317.59-16.97 323.33-11.72Q324.11-13.84 324.11-16.19L324.11-16.19Q324.11-17.63 323.38-18.58L323.38-18.58Q323.21-18.8 323.11-18.87L323.11-18.87 323.11-19.17 326.65-17.75Q327.68-17.33 328.31-17.11 328.95-16.89 329.26-16.75L329.26-16.75Q329.83-16.5 329.83-16.21L329.83-16.21Q329.83-11.82 327.85-7.86L327.85-7.86Q330.34-5.81 331.05-5.54 331.75-5.27 332.12-5.22L332.12-5.22Q333.29-5.08 333.49-5.32L333.49-5.32 333.61-5.18 331.1 0.32Q330.68 0.61 329.68 0.61L329.68 0.61Q328.14 0.61 324.04-2.88ZM309.59-7.01Q311.61-5.25 314.46-5.25 317.3-5.25 319.57-6.81L319.57-6.81 316.94-9.23Q312.71-13.06 310.22-15.92L310.22-15.92Q307.56-13.99 307.56-11.38 307.56-8.76 309.59-7.01ZM361.07 0L358.75 0Q355.16 0 353.99 0.15L353.99 0.15 353.99-32.62Q354.58-32.47 356.42-32.47 358.26-32.47 360.7-32.57L360.7-32.57 360.7-5.86 365.76-5.86Q367.96-5.86 369.27-6.01L369.27-6.01Q369.1-0.29 369.1-0.07L369.1-0.07 369.1 0.17Q366.71 0 361.07 0L361.07 0ZM373.03-12.55L373.03-12.55Q373.03-15.41 374.01-17.85 374.98-20.29 376.77-22.12L376.77-22.12Q380.58-26 386.73-26L386.73-26Q391.93-26 395.08-22.56L395.08-22.56Q398.18-19.24 398.18-14.21L398.18-14.21Q398.18-12.28 397.88-11.57L397.88-11.57Q395.44-10.89 387.95-10.89L387.95-10.89 379.35-10.89Q379.99-8.28 382.31-6.82 384.63-5.37 388.34-5.37L388.34-5.37Q392.22-5.37 395-6.76L395-6.76Q395.74-7.13 396.1-7.45L396.1-7.45Q396.05-6.42 395.98-5.35L395.98-5.35 395.71-1.54Q393.86-0.27 389.71 0.22L389.71 0.22Q388.49 0.37 387.36 0.37L387.36 0.37Q381.16 0.37 377.11-3.25L377.11-3.25Q373.03-6.88 373.03-12.55ZM391.68-15.63L391.68-15.63Q390.68-20.87 385.97-20.87L385.97-20.87Q382.26-20.87 380.33-17.68L380.33-17.68Q379.75-16.7 379.43-15.53L379.43-15.53Q380.01-15.5 380.87-15.48L380.87-15.48 382.67-15.48Q383.58-15.45 384.41-15.45L384.41-15.45 385.8-15.45Q387.04-15.45 388.24-15.48L388.24-15.48 390.24-15.55Q391.05-15.58 391.68-15.63ZM420.32-1.51L420.32-1.51Q416.85 0.37 414.04 0.37 411.24 0.37 409.23-0.16 407.23-0.68 405.84-1.71L405.84-1.71Q403.01-3.78 403.01-7.71L403.01-7.71Q403.01-11.23 406.48-13.57L406.48-13.57Q410.24-16.11 416.68-16.11L416.68-16.11 417.66-16.09Q417.95-16.06 418.32-16.05 418.68-16.04 418.98-15.99L418.98-15.99Q418.78-19.9 415.61-20.56L415.61-20.56Q414.56-20.78 413.37-20.78 412.19-20.78 411.05-20.57 409.92-20.36 408.84-20.02L408.84-20.02Q406.48-19.26 405.45-18.29L405.45-18.29 405.38-18.33 404.65-23.73Q408.97-26 414.09-26L414.09-26Q422.05-26 424.27-20.26L424.27-20.26Q424.98-18.43 424.98-16.14L424.98-16.14 424.98-7.3Q424.98-4.47 426.98-3.44L426.98-3.44 422.56 0.61Q421.17-0.12 420.32-1.51ZM419-6.49L419-11.6Q418.34-11.72 417.63-11.72L417.63-11.72 416.66-11.72Q411.26-11.72 409.8-9.33L409.8-9.33Q409.36-8.62 409.36-7.84 409.36-7.06 409.64-6.46 409.92-5.86 410.58-5.47L410.58-5.47Q411.85-4.74 414.35-4.74 416.85-4.74 419.02-5.93L419.02-5.93Q419-6.2 419-6.49L419-6.49ZM438.36-17.77L438.36-2.73Q438.36-0.63 438.46 0L438.46 0 432.38 0 432.38-25.51 438.36-25.51 438.36-23.63Q440.43-26 442.72-26 445-26 446.32-25.44L446.32-25.44 445.88-18.87 445.78-18.8Q444.93-20.31 442.24-20.31L442.24-20.31Q441.21-20.31 440.15-19.62 439.09-18.92 438.36-17.77L438.36-17.77ZM455.71-17.07L455.71-3.13Q455.71-0.98 455.91 0L455.91 0 449.78 0 449.78-25.51 455.71-25.51 455.71-23.34Q458.94-26 462.6-26L462.6-26Q466.6-26 469-23.28 471.39-20.56 471.39-16.11L471.39-16.11 471.39-6.4Q471.39-2.27 471.51-1.44 471.63-0.61 471.84-0.37 472.05-0.12 472.19 0.07L472.19 0.07 472.14 0.17Q470.17 0 469.26 0L469.26 0 467.56 0Q466.77 0 465.46 0.07L465.46 0.07 465.46-13.23Q465.46-20.39 461.11-20.39L461.11-20.39Q457.89-20.39 455.71-17.07L455.71-17.07Z" opacity="1" transform="matrix(1,0,0,1,0,0)" fill="#ffffff" class="slogan-text-1" data-fill-palette-color="secondary" id="text-1"></path></svg></g></svg></g></svg></g></svg></g><g transform="matrix(1,0,0,1,411.4974457891366,0)"><svg viewBox="0 0 146.6654158353648 146.6654158353648" height="146.6654158353648" width="146.6654158353648"><g data-palette-color="#50a060"><rect width="40.08854699499971" height="146.6654158353648" fill="#ffffff" stroke="transparent" data-fill-palette-color="accent" x="0" fill-opacity="1"></rect><rect width="40.08854699499971" height="146.6654158353648" fill="#ffffff" stroke="transparent" data-fill-palette-color="accent" x="48.888471945121594" fill-opacity="0.75"></rect><rect width="40.08854699499971" height="146.6654158353648" fill="#ffffff" stroke="transparent" data-fill-palette-color="accent" x="97.77694389024319" fill-opacity="0.5"></rect></g></svg></g></svg></g><defs></defs></svg><rect width="395.52" height="103.92863671074652" fill="none" stroke="none" visibility="hidden"></rect></g></svg></g></svg>